#!OML:ASF F:\VICON\USERDATA\INSTALL\rory3\rory3.ASF
:FULLY-SPECIFIED
:DEGREES
204
root 1.56811 18.4438 11.5824 61.1013 -71.4623 308.499
lowerback -1.31143 3.10321 3.51916
upperback -10.0427 4.11778 1.1833
thorax -9.73302 1.65857 -0.96284
lowerneck 0.00767808 -14.4636 -16.346
upperneck 24.3707 -23.3506 12.3394
head 11.3382 -11.7104 4.13676
rclavicle -6.22196e-014 -3.65764e-014
rhumerus 186.773 -220.435 127.96
rradius 57.1054
rwrist -13.2403
rhand 8.52891 5.07171
rfingers 7.12502
rthumb 33.7298 -21.7716
lclavicle -6.22196e-014 -3.65764e-014
lhumerus 18.7897 7.01132 50.6884
lradius 21.6478
lwrist -21.0415
lhand -13.5757 23.0651
lfingers 7.12502
lthumb 12.5382 52.6689
rfemur -85.3937 -20.2723 61.122
rtibia 112.73
rfoot 18.1342 -55.1448
rtoes 54.6362
lfemur -21.6398 -5.46363 -19.6551
ltibia 26.7313
lfoot 0.359471 32.935
ltoes 4.0938
205
root 1.54101 18.4495 11.6919 75.0474 -73.7331 294.841
lowerback -1.63285 3.19749 3.79816
upperback -9.92508 4.2095 1.12519
thorax -9.38277 1.6788 -1.161
lowerneck -0.569552 -13.9055 -15.1886
upperneck 24.5792 -22.5312 12.0171
head 11.1834 -11.2607 3.97928
rclavicle 1.86858e-014 -2.22639e-014
rhumerus 186.723 -220.847 127.814
rradius 57.7417
rwrist -13.9038
rhand 8.43573 5.08138
rfingers 7.12502
rthumb 33.6412 -21.7813
lclavicle 1.86858e-014 -2.22639e-014
lhumerus 18.649 5.67293 50.5032
lradius 21.6031
lwrist -20.3092
lhand -13.1035 22.9454
lfingers 7.12502
lthumb 12.9934 52.5208
rfemur -85.4502 -20.6436 61.3305
rtibia 112.461
rfoot 19.3918 -54.7722
rtoes 53.7333
lfemur -21.6744 -4.96845 -19.1187
ltibia 26.9047
lfoot 3.29436 31.0786
ltoes -0.00342411
206
root 1.50586 18.4399 11.7898 92.4394 -74.8268 277.532
lowerback -1.81022 3.34871 4.81859
upperback -9.6943 4.37803 0.488868
thorax -8.89278 1.66261 -2.38529
lowerneck -1.16484 -13.2359 -13.3294
upperneck 24.6287 -21.655 11.8823
head 10.9141 -10.7211 3.79344
rclavicle 3.24019e-014 4.77083e-014
rhumerus 186.49 -220.779 126.678
rradius 58.3586
rwrist -14.3936
rhand 8.28763 3.87951
rfingers 7.12502
rthumb 33.5005 -23.0137
lclavicle 3.24019e-014 4.77083e-014
lhumerus 18.872 4.69358 50.0151
lradius 21.6287
lwrist -20.5181
lhand -12.5682 23.3989
lfingers 7.12502
lthumb 13.5094 52.9407
rfemur -84.7989 -20.7963 61.9509
rtibia 111.956
rfoot 17.8513 -55.092
rtoes 53.4514
lfemur -21.5084 -3.08792 -18.7182
ltibia 27.0236
lfoot 6.70392 27.813
ltoes -3.84994
207
root 1.46475 18.4481 11.8985 111.557 -74.9411 258.774
lowerback -1.88067 3.50944 3.94759
upperback -9.90067 4.55035 0.766389
thorax -9.15097 1.80515 -1.62148
lowerneck -1.44099 -12.5476 -12.3878
upperneck 24.8852 -20.4658 10.8037
head 10.6343 -10.1864 3.46799
rclavicle -2.64384e-014 -2.70347e-014
rhumerus 186.22 -221.886 127.221
rradius 59.1479
rwrist -15.0853
rhand 8.2179 2.44974
rfingers 7.12502
rthumb 33.4342 -24.4578
lclavicle -2.64384e-014 -2.70347e-014
lhumerus 18.0398 4.61142 51.4977
lradius 21.4004
lwrist -21.4627
lhand -12.559 23.6795
lfingers 7.12502
lthumb 13.5183 53.2208
rfemur -84.8082 -20.9185 61.6683
rtibia 111.865
rfoot 17.8651 -55.1125
rtoes 52.9544
lfemur -21.2996 -4.80096 -18.474
ltibia 26.9109
lfoot 5.77335 27.8076
ltoes -1.80287
208
root 1.41648 18.4436 12.007 129.547 -73.6563 241.3
lowerback -2.27084 3.59053 3.09384
upperback -10.1054 4.57343 0.745974
thorax -9.20776 1.86502 -1.15399
lowerneck -1.59472 -11.6523 -11.4399
upperneck 25.0371 -19.1609 10.2812
head 10.3696 -9.56762 3.34696
rclavicle 1.66979e-014 -4.92986e-014
rhumerus 186.059 -222.275 127.04
rradius 58.9572
rwrist -14.7561
rhand 8.96191 4.76294
rfingers 7.12502
rthumb 34.1411 -21.9894
lclavicle 1.66979e-014 -4.92986e-014
lhumerus 17.2019 3.44658 51.473
lradius 21.4847
lwrist -21.2953
lhand -11.9794 23.2194
lfingers 7.12502
lthumb 14.0769 52.7226
rfemur -85.025 -20.8359 61.3513
rtibia 111.831
rfoot 17.2309 -55.365
rtoes 53.1356
lfemur -21.3503 -5.85497 -18.5164
ltibia 26.8235
lfoot 8.01163 26.3318
ltoes -8.20144
209
root 1.36911 18.4535 12.1007 141.519 -70.4381 229.662
lowerback -2.40201 3.76707 3.51612
upperback -10.213 4.77622 0.614746
thorax -9.19919 1.90819 -1.52632
lowerneck -1.62577 -10.7087 -10.7245
upperneck 25.0325 -18.0399 10.6836
head 10.1896 -8.98983 3.54476
rclavicle -5.32743e-014 -3.81667e-014
rhumerus 185.737 -221.618 125.576
rradius 58.0222
rwrist -14.1166
rhand 9.51738 5.39007
rfingers 7.12502
rthumb 34.6685 -21.2428
lclavicle -5.32743e-014 -3.81667e-014
lhumerus 16.5496 0.486322 50.3317
lradius 22.1425
lwrist -19.5311
lhand -11.6781 23.4957
lfingers 7.12502
lthumb 14.3672 52.9786
rfemur -84.2824 -20.563 61.8698
rtibia 111.374
rfoot 12.3964 -56.0327
rtoes 52.9528
lfemur -21.1592 -6.88378 -17.3533
ltibia 26.7888
lfoot 8.03263 25.1661
ltoes -7.54211
210
root 1.32095 18.468 12.1905 149.516 -66.4679 222.036
lowerback -2.48958 4.08776 4.30272
upperback -10.2697 5.1889 0.507676
thorax -9.11773 2.02972 -2.0817
lowerneck -1.82968 -9.82111 -10.2816
upperneck 25.0168 -16.9826 11.2247
head 10.0898 -8.43725 3.80234
rclavicle -7.15625e-015 -2.54444e-014
rhumerus 185.03 -222.098 125.573
rradius 59.6651
rwrist -14.371
rhand 9.76248 5.85601
rfingers 7.12502
rthumb 34.901 -20.7231
lclavicle -7.15625e-015 -2.54444e-014
lhumerus 16.2244 -1.89434 50.2799
lradius 22.5848
lwrist -18.3462
lhand -12.0651 23.9902
lfingers 7.12502
lthumb 13.9943 53.4992
rfemur -83.2968 -20.1937 62.5067
rtibia 110.928
rfoot 6.83721 -56.4862
rtoes 54.1922
lfemur -20.9035 -8.03479 -15.8356
ltibia 26.8404
lfoot 7.05785 24.1467
ltoes -4.27642
211
root 1.26869 18.4315 12.3167 157.152 -62.6649 214.779
lowerback -2.59963 4.27751 3.88669
upperback -10.3166 5.40266 0.647178
thorax -9.14086 2.16044 -1.70734
lowerneck -2.24656 -8.85898 -10.1645
upperneck 24.9147 -15.5943 11.3425
head 9.94391 -7.76649 3.99164
rclavicle 2.94201e-014 -4.77083e-014
rhumerus 185.444 -223.199 126.838
rradius 60.6519
rwrist -14.7
rhand 9.66516 6.42053
rfingers 7.12502
rthumb 34.8087 -20.18
lclavicle 2.94201e-014 -4.77083e-014
lhumerus 15.6192 -1.52895 51.9967
lradius 22.3911
lwrist -19.4885
lhand -12.4693 23.8818
lfingers 7.12502
lthumb 13.6047 53.4172
rfemur -83.2591 -19.9048 62.1594
rtibia 111.185
rfoot 1.30393 -56.5382
rtoes 55.4615
lfemur -20.9007 -11.3913 -15.3383
ltibia 27.0666
lfoot 3.26445 24.8362
ltoes 2.80656
212
root 1.20857 18.432 12.4263 163.225 -58.6148 209.021
lowerback -2.63832 4.34795 3.85995
upperback -10.491 5.41634 0.0182222
thorax -9.25029 2.11656 -2.35703
lowerneck -2.63973 -7.68951 -8.48227
upperneck 24.9794 -14.158 11.4374
head 9.72636 -6.96209 3.91862
rclavicle 1.66979e-014 5.88403e-014
rhumerus 185.666 -224.382 126.763
rradius 62.0718
rwrist -15.4739
rhand 8.81702 5.21153
rfingers 7.12502
rthumb 34.0035 -21.5715
lclavicle 1.66979e-014 5.88403e-014
lhumerus 14.9146 -2.59814 51.6354
lradius 22.8168
lwrist -19.5573
lhand -12.506 23.7056
lfingers 7.12502
lthumb 13.5694 53.2434
rfemur -83.7543 -19.6551 61.3024
rtibia 111.527
rfoot -3.89185 -56.743
rtoes 56.6182
lfemur -20.3073 -14.0905 -14.9533
ltibia 26.4825
lfoot -0.286954 23.9319
ltoes 11.8893
213
root 1.13447 18.3338 12.5372 168.072 -54.4423 204.465
lowerback -2.79337 4.72518 3.33172
upperback -10.577 5.84958 -0.27806
thorax -9.24478 2.34562 -2.38694
lowerneck -3.14049 -6.83586 -7.73686
upperneck 24.9946 -13.0137 11.4743
head 9.63551 -6.35184 3.92549
rclavicle -5.725e-014 -1.59028e-014
rhumerus 185.686 -225.757 128.731
rradius 65.0347
rwrist -17.03
rhand 8.19844 3.26358
rfingers 7.12502
rthumb 33.4157 -23.648
lclavicle -5.725e-014 -1.59028e-014
lhumerus 14.5596 -3.90301 52.7018
lradius 23.0822
lwrist -19.6085
lhand -12.7893 23.4707
lfingers 7.12502
lthumb 13.2963 53.0266
rfemur -84.2898 -18.9942 60.6974
rtibia 112.28
rfoot 20.1515 -54.249
rtoes 48.9306
lfemur -20.4699 -14.2515 -15.3457
ltibia 26.4391
lfoot 6.38754 19.7974
ltoes -4.0098
214
root 1.05813 18.4004 12.6472 171.635 -50.0844 201.218
lowerback -2.94737 4.99348 3.00396
upperback -10.7215 6.13412 -0.549376
thorax -9.30147 2.47816 -2.49574
lowerneck -3.40302 -5.9007 -6.52259
upperneck 24.9234 -11.7677 11.2829
head 9.42529 -5.68783 3.78779
rclavicle 1.11319e-014 -1.59028e-015
rhumerus 185.1 -223.484 127.171
rradius 62.5581
rwrist -15.0237
rhand 10.0688 6.74283
rfingers 7.12502
rthumb 35.1916 -19.7683
lclavicle 1.11319e-014 -1.59028e-015
lhumerus 14.0979 -5.01504 53.5639
lradius 23.1405
lwrist -19.5532
lhand -12.801 23.3826
lfingers 7.12502
lthumb 13.285 52.9392
rfemur -85.6534 -19.1369 58.9705
rtibia 112.733
rfoot 39.7829 -45.8591
rtoes 34.1983
lfemur -20.1434 -14.2846 -15.237
ltibia 25.7797
lfoot 10.2385 14.2563
ltoes -13.3248
215
root 0.975047 18.2795 12.7369 174.063 -45.4076 199.107
lowerback -3.07098 5.16916 2.80099
upperback -10.8189 6.31432 -0.565077
thorax -9.34714 2.56122 -2.39948
lowerneck -3.64301 -4.76083 -5.69875
upperneck 24.8641 -10.3139 11.511
head 9.25942 -4.9282 3.87767
rclavicle -9.42239e-014 -6.36111e-015
rhumerus 185.923 -225.061 128.729
rradius 64.5908
rwrist -16.4347
rhand 9.71598 6.12766
rfingers 7.12502
rthumb 34.8569 -20.4617
lclavicle -9.42239e-014 -6.36111e-015
lhumerus 13.4863 -5.59163 54.3047
lradius 23.0374
lwrist -19.6759
lhand -12.1752 21.902
lfingers 7.12502
lthumb 13.8882 51.4182
rfemur -84.3971 -18.2113 59.6034
rtibia 112.791
rfoot 14.4202 -54.2729
rtoes 50.0258
lfemur -20.0197 -15.4557 -14.6555
ltibia 25.529
lfoot 11.1261 9.86519
ltoes -19.3545
216
root 0.896123 18.2599 12.8232 176.12 -40.4371 197.403
lowerback -3.48595 5.34532 2.4615
upperback -10.7137 6.49877 -0.452501
thorax -9.02576 2.68236 -2.05653
lowerneck -4.31108 -3.48629 -5.24011
upperneck 24.8753 -8.67273 12.0114
head 9.21922 -4.06027 4.12987
rclavicle -7.196e-014 -6.20208e-014
rhumerus 186.854 -225.005 129.445
rradius 64.6153
rwrist -16.3988
rhand 9.63022 5.83415
rfingers 7.12502
rthumb 34.7755 -20.774
lclavicle -7.196e-014 -6.20208e-014
lhumerus 13.0173 -5.33234 55.1082
lradius 22.9254
lwrist -20.3298
lhand -11.7346 21.8044
lfingers 7.12502
lthumb 14.3127 51.2911
rfemur -84.1695 -17.4147 59.2895
rtibia 112.855
rfoot 26.4678 -49.788
rtoes 42.7076
lfemur -19.6562 -16.4582 -13.9802
ltibia 24.8394
lfoot 11.2304 4.99892
ltoes -25.8429
217
root 0.812912 18.2015 12.9169 177.881 -35.2179 196.264
lowerback -3.75111 5.73206 2.86352
upperback -10.7778 6.95159 -0.710441
thorax -8.84096 2.84434 -2.53035
lowerneck -4.9214 -2.27607 -4.24217
upperneck 24.9064 -7.22644 12.483
head 9.18124 -3.2464 4.25651
rclavicle -1.22849e-013 4.77083e-015
rhumerus 187.326 -224.778 129.611
rradius 65.0217
rwrist -16.2829
rhand 10.627 7.97264
rfingers 7.12502
rthumb 35.7208 -18.412
lclavicle -1.22849e-013 4.77083e-015
lhumerus 12.8577 -5.91361 55.4615
lradius 22.8642
lwrist -20.4844
lhand -11.3304 21.8459
lfingers 7.12502
lthumb 14.7022 51.3046
rfemur -84.4767 -16.1096 58.9807
rtibia 113.002
rfoot 19.3921 -53.9073
rtoes 47.5774
lfemur -19.8206 -19.8211 -12.799
ltibia 24.8398
lfoot 9.06733 3.74929
ltoes -26.6703
218
root 0.722853 18.1332 13.0032 179.592 -30.0263 195.244
lowerback -3.8614 6.2096 2.5958
upperback -11.1253 7.50854 -0.668838
thorax -9.17655 3.09371 -2.36196
lowerneck -5.38943 -1.28728 -3.45739
upperneck 25.3945 -6.07863 12.5594
head 9.3106 -2.63241 4.26227
rclavicle -7.15625e-015 0
rhumerus 187.319 -225.018 130.236
rradius 65.753
rwrist -16.2375
rhand 11.3107 8.45668
rfingers 7.12502
rthumb 36.3684 -17.7685
lclavicle -7.15625e-015 0
lhumerus 12.3145 -6.50744 56.7553
lradius 22.5975
lwrist -20.7801
lhand -11.209 22.039
lfingers 7.12502
lthumb 14.8192 51.4891
rfemur -85.2687 -14.9118 58.4486
rtibia 113.35
rfoot 28.6446 -52.0746
rtoes 42.3845
lfemur -19.7043 -22.4415 -11.7928
ltibia 24.2879
lfoot 6.6627 2.95599
ltoes -24.5964
